<svg xmlns="http://www.w3.org/2000/svg" viewBox="0 0 128 128">
<defs><linearGradient id="pl-bg" x1="0" y1="0" x2="0" y2="1">
<stop offset="0" stop-color="#a6d4e2"/><stop offset="1" stop-color="#7cb6c9"/>
</linearGradient></defs>
<rect x="6" y="6" width="116" height="116" rx="27" fill="url(#pl-bg)"/>
<g shape-rendering="crispEdges" transform="translate(21.08 27.21) scale(2.04)"><rect x="14" y="0" width="12" height="1.02" fill="#111013"/><rect x="13" y="1" width="1" height="1.02" fill="#4a4138"/><rect x="14" y="1" width="12" height="1.02" fill="#111013"/><rect x="26" y="1" width="1" height="1.02" fill="#695e50"/><rect x="11" y="2" width="3" height="1.02" fill="#111013"/><rect x="14" y="2" width="13" height="1.02" fill="#cba57b"/><rect x="27" y="2" width="3" height="1.02" fill="#111013"/><rect x="9" y="3" width="2" height="1.02" fill="#111013"/><rect x="11" y="3" width="19" height="1.02" fill="#cba57b"/><rect x="30" y="3" width="2" height="1.02" fill="#111013"/><rect x="38" y="3" width="4" height="1.02" fill="#111013"/><rect x="7" y="4" width="1" height="1.02" fill="#2e2622"/><rect x="8" y="4" width="1" height="1.02" fill="#111013"/><rect x="9" y="4" width="14" height="1.02" fill="#cba57b"/><rect x="23" y="4" width="3" height="1.02" fill="#4e2d17"/><rect x="26" y="4" width="6" height="1.02" fill="#cba57b"/><rect x="32" y="4" width="1" height="1.02" fill="#111013"/><rect x="37" y="4" width="1" height="1.02" fill="#695e50"/><rect x="38" y="4" width="2" height="1.02" fill="#a98869"/><rect x="40" y="4" width="2" height="1.02" fill="#111013"/><rect x="7" y="5" width="1" height="1.02" fill="#111013"/><rect x="8" y="5" width="5" height="1.02" fill="#cba57b"/><rect x="13" y="5" width="1" height="1.02" fill="#a98869"/><rect x="14" y="5" width="2" height="1.02" fill="#2e2622"/><rect x="16" y="5" width="1" height="1.02" fill="#a98869"/><rect x="17" y="5" width="5" height="1.02" fill="#cba57b"/><rect x="22" y="5" width="1" height="1.02" fill="#a98869"/><rect x="23" y="5" width="1" height="1.02" fill="#785c41"/><rect x="24" y="5" width="1" height="1.02" fill="#c57953"/><rect x="25" y="5" width="1" height="1.02" fill="#a98869"/><rect x="26" y="5" width="1" height="1.02" fill="#785c41"/><rect x="27" y="5" width="6" height="1.02" fill="#cba57b"/><rect x="33" y="5" width="1" height="1.02" fill="#4a4138"/><rect x="34" y="5" width="1" height="1.02" fill="#111013"/><rect x="36" y="5" width="1" height="1.02" fill="#695e50"/><rect x="37" y="5" width="2" height="1.02" fill="#a98869"/><rect x="39" y="5" width="1" height="1.02" fill="#8d745a"/><rect x="40" y="5" width="2" height="1.02" fill="#111013"/><rect x="6" y="6" width="1" height="1.02" fill="#111013"/><rect x="7" y="6" width="5" height="1.02" fill="#cba57b"/><rect x="12" y="6" width="1" height="1.02" fill="#5c4129"/><rect x="13" y="6" width="4" height="1.02" fill="#e4cc74"/><rect x="17" y="6" width="4" height="1.02" fill="#cba57b"/><rect x="21" y="6" width="1" height="1.02" fill="#4e2d17"/><rect x="22" y="6" width="1" height="1.02" fill="#785c41"/><rect x="23" y="6" width="4" height="1.02" fill="#c57953"/><rect x="27" y="6" width="1" height="1.02" fill="#4e2d17"/><rect x="28" y="6" width="6" height="1.02" fill="#cba57b"/><rect x="34" y="6" width="3" height="1.02" fill="#111013"/><rect x="37" y="6" width="2" height="1.02" fill="#a98869"/><rect x="39" y="6" width="1" height="1.02" fill="#8d745a"/><rect x="40" y="6" width="2" height="1.02" fill="#111013"/><rect x="5" y="7" width="1" height="1.02" fill="#695e50"/><rect x="6" y="7" width="5" height="1.02" fill="#cba57b"/><rect x="11" y="7" width="1" height="1.02" fill="#5c4129"/><rect x="12" y="7" width="5" height="1.02" fill="#e4cc74"/><rect x="17" y="7" width="1" height="1.02" fill="#4e2d17"/><rect x="18" y="7" width="3" height="1.02" fill="#cba57b"/><rect x="21" y="7" width="1" height="1.02" fill="#4e2d17"/><rect x="22" y="7" width="5" height="1.02" fill="#c57953"/><rect x="27" y="7" width="1" height="1.02" fill="#4e2d17"/><rect x="28" y="7" width="6" height="1.02" fill="#cba57b"/><rect x="34" y="7" width="1" height="1.02" fill="#111013"/><rect x="35" y="7" width="1" height="1.02" fill="#8d745a"/><rect x="36" y="7" width="1" height="1.02" fill="#a98869"/><rect x="37" y="7" width="2" height="1.02" fill="#8d745a"/><rect x="39" y="7" width="2" height="1.02" fill="#4a4138"/><rect x="41" y="7" width="1" height="1.02" fill="#111013"/><rect x="4" y="8" width="1" height="1.02" fill="#111013"/><rect x="5" y="8" width="6" height="1.02" fill="#cba57b"/><rect x="11" y="8" width="1" height="1.02" fill="#5c4129"/><rect x="12" y="8" width="5" height="1.02" fill="#e4cc74"/><rect x="17" y="8" width="1" height="1.02" fill="#4e2d17"/><rect x="18" y="8" width="3" height="1.02" fill="#cba57b"/><rect x="21" y="8" width="1" height="1.02" fill="#4e2d17"/><rect x="22" y="8" width="5" height="1.02" fill="#c57953"/><rect x="27" y="8" width="1" height="1.02" fill="#4e2d17"/><rect x="28" y="8" width="5" height="1.02" fill="#cba57b"/><rect x="33" y="8" width="1" height="1.02" fill="#111013"/><rect x="34" y="8" width="3" height="1.02" fill="#a98869"/><rect x="37" y="8" width="1" height="1.02" fill="#8d745a"/><rect x="38" y="8" width="1" height="1.02" fill="#4a4138"/><rect x="39" y="8" width="1" height="1.02" fill="#111013"/><rect x="3" y="9" width="1" height="1.02" fill="#111013"/><rect x="4" y="9" width="7" height="1.02" fill="#cba57b"/><rect x="11" y="9" width="1" height="1.02" fill="#5c4129"/><rect x="12" y="9" width="1" height="1.02" fill="#cba57b"/><rect x="13" y="9" width="4" height="1.02" fill="#e4cc74"/><rect x="17" y="9" width="4" height="1.02" fill="#cba57b"/><rect x="21" y="9" width="1" height="1.02" fill="#4e2d17"/><rect x="22" y="9" width="1" height="1.02" fill="#5c4129"/><rect x="23" y="9" width="4" height="1.02" fill="#c57953"/><rect x="27" y="9" width="1" height="1.02" fill="#5c4129"/><rect x="28" y="9" width="4" height="1.02" fill="#cba57b"/><rect x="32" y="9" width="1" height="1.02" fill="#111013"/><rect x="33" y="9" width="3" height="1.02" fill="#a98869"/><rect x="36" y="9" width="1" height="1.02" fill="#8d745a"/><rect x="37" y="9" width="1" height="1.02" fill="#695e50"/><rect x="38" y="9" width="1" height="1.02" fill="#111013"/><rect x="3" y="10" width="1" height="1.02" fill="#111013"/><rect x="4" y="10" width="8" height="1.02" fill="#cba57b"/><rect x="12" y="10" width="1" height="1.02" fill="#785c41"/><rect x="13" y="10" width="4" height="1.02" fill="#cba57b"/><rect x="17" y="10" width="1" height="1.02" fill="#a98869"/><rect x="18" y="10" width="5" height="1.02" fill="#cba57b"/><rect x="23" y="10" width="3" height="1.02" fill="#5c4129"/><rect x="26" y="10" width="1" height="1.02" fill="#4e2d17"/><rect x="27" y="10" width="4" height="1.02" fill="#cba57b"/><rect x="31" y="10" width="1" height="1.02" fill="#111013"/><rect x="32" y="10" width="3" height="1.02" fill="#a98869"/><rect x="35" y="10" width="2" height="1.02" fill="#8d745a"/><rect x="37" y="10" width="1" height="1.02" fill="#111013"/><rect x="2" y="11" width="1" height="1.02" fill="#111013"/><rect x="3" y="11" width="10" height="1.02" fill="#cba57b"/><rect x="13" y="11" width="3" height="1.02" fill="#4e2d17"/><rect x="16" y="11" width="1" height="1.02" fill="#8d745a"/><rect x="17" y="11" width="13" height="1.02" fill="#cba57b"/><rect x="30" y="11" width="1" height="1.02" fill="#111013"/><rect x="31" y="11" width="4" height="1.02" fill="#a98869"/><rect x="35" y="11" width="1" height="1.02" fill="#8d745a"/><rect x="36" y="11" width="3" height="1.02" fill="#111013"/><rect x="2" y="12" width="1" height="1.02" fill="#111013"/><rect x="3" y="12" width="3" height="1.02" fill="#cba57b"/><rect x="6" y="12" width="4" height="1.02" fill="#4a4138"/><rect x="10" y="12" width="19" height="1.02" fill="#cba57b"/><rect x="29" y="12" width="2" height="1.02" fill="#111013"/><rect x="31" y="12" width="2" height="1.02" fill="#a98869"/><rect x="33" y="12" width="2" height="1.02" fill="#8d745a"/><rect x="35" y="12" width="1" height="1.02" fill="#695e50"/><rect x="36" y="12" width="3" height="1.02" fill="#111013"/><rect x="2" y="13" width="1" height="1.02" fill="#111013"/><rect x="3" y="13" width="3" height="1.02" fill="#cba57b"/><rect x="6" y="13" width="3" height="1.02" fill="#779170"/><rect x="9" y="13" width="1" height="1.02" fill="#4a4138"/><rect x="10" y="13" width="18" height="1.02" fill="#cba57b"/><rect x="28" y="13" width="1" height="1.02" fill="#4a4138"/><rect x="29" y="13" width="1" height="1.02" fill="#111013"/><rect x="30" y="13" width="3" height="1.02" fill="#a98869"/><rect x="33" y="13" width="2" height="1.02" fill="#785c41"/><rect x="35" y="13" width="2" height="1.02" fill="#111013"/><rect x="37" y="13" width="1" height="1.02" fill="#a98869"/><rect x="38" y="13" width="1" height="1.02" fill="#111013"/><rect x="0" y="14" width="2" height="1.02" fill="#111013"/><rect x="2" y="14" width="2" height="1.02" fill="#cba57b"/><rect x="4" y="14" width="1" height="1.02" fill="#4a4138"/><rect x="5" y="14" width="5" height="1.02" fill="#779170"/><rect x="10" y="14" width="1" height="1.02" fill="#4a4138"/><rect x="11" y="14" width="16" height="1.02" fill="#cba57b"/><rect x="27" y="14" width="2" height="1.02" fill="#111013"/><rect x="29" y="14" width="3" height="1.02" fill="#a98869"/><rect x="32" y="14" width="1" height="1.02" fill="#785c41"/><rect x="33" y="14" width="1" height="1.02" fill="#695e50"/><rect x="34" y="14" width="2" height="1.02" fill="#111013"/><rect x="36" y="14" width="3" height="1.02" fill="#cba57b"/><rect x="39" y="14" width="1" height="1.02" fill="#111013"/><rect x="0" y="15" width="2" height="1.02" fill="#111013"/><rect x="2" y="15" width="2" height="1.02" fill="#cba57b"/><rect x="4" y="15" width="1" height="1.02" fill="#4a4138"/><rect x="5" y="15" width="5" height="1.02" fill="#779170"/><rect x="10" y="15" width="2" height="1.02" fill="#4a4138"/><rect x="12" y="15" width="14" height="1.02" fill="#cba57b"/><rect x="26" y="15" width="2" height="1.02" fill="#111013"/><rect x="28" y="15" width="3" height="1.02" fill="#a98869"/><rect x="31" y="15" width="2" height="1.02" fill="#785c41"/><rect x="33" y="15" width="2" height="1.02" fill="#111013"/><rect x="35" y="15" width="4" height="1.02" fill="#cba57b"/><rect x="39" y="15" width="1" height="1.02" fill="#111013"/><rect x="0" y="16" width="2" height="1.02" fill="#111013"/><rect x="2" y="16" width="2" height="1.02" fill="#cba57b"/><rect x="4" y="16" width="1" height="1.02" fill="#2e2622"/><rect x="5" y="16" width="5" height="1.02" fill="#779170"/><rect x="10" y="16" width="1" height="1.02" fill="#4a4138"/><rect x="11" y="16" width="14" height="1.02" fill="#cba57b"/><rect x="25" y="16" width="1" height="1.02" fill="#111013"/><rect x="26" y="16" width="4" height="1.02" fill="#a98869"/><rect x="30" y="16" width="1" height="1.02" fill="#8d745a"/><rect x="31" y="16" width="1" height="1.02" fill="#785c41"/><rect x="32" y="16" width="1" height="1.02" fill="#111013"/><rect x="33" y="16" width="6" height="1.02" fill="#cba57b"/><rect x="39" y="16" width="1" height="1.02" fill="#111013"/><rect x="0" y="17" width="2" height="1.02" fill="#111013"/><rect x="2" y="17" width="3" height="1.02" fill="#cba57b"/><rect x="5" y="17" width="1" height="1.02" fill="#4a4138"/><rect x="6" y="17" width="4" height="1.02" fill="#779170"/><rect x="10" y="17" width="1" height="1.02" fill="#695e50"/><rect x="11" y="17" width="13" height="1.02" fill="#cba57b"/><rect x="24" y="17" width="1" height="1.02" fill="#a98869"/><rect x="25" y="17" width="1" height="1.02" fill="#111013"/><rect x="26" y="17" width="3" height="1.02" fill="#a98869"/><rect x="29" y="17" width="2" height="1.02" fill="#785c41"/><rect x="31" y="17" width="1" height="1.02" fill="#111013"/><rect x="32" y="17" width="7" height="1.02" fill="#cba57b"/><rect x="39" y="17" width="1" height="1.02" fill="#111013"/><rect x="0" y="18" width="2" height="1.02" fill="#111013"/><rect x="2" y="18" width="4" height="1.02" fill="#cba57b"/><rect x="6" y="18" width="3" height="1.02" fill="#2e2622"/><rect x="9" y="18" width="1" height="1.02" fill="#4a4138"/><rect x="10" y="18" width="14" height="1.02" fill="#cba57b"/><rect x="24" y="18" width="2" height="1.02" fill="#111013"/><rect x="26" y="18" width="2" height="1.02" fill="#a98869"/><rect x="28" y="18" width="1" height="1.02" fill="#8d745a"/><rect x="29" y="18" width="1" height="1.02" fill="#785c41"/><rect x="30" y="18" width="1" height="1.02" fill="#4a4138"/><rect x="31" y="18" width="1" height="1.02" fill="#111013"/><rect x="32" y="18" width="7" height="1.02" fill="#cba57b"/><rect x="39" y="18" width="1" height="1.02" fill="#111013"/><rect x="0" y="19" width="2" height="1.02" fill="#111013"/><rect x="2" y="19" width="21" height="1.02" fill="#cba57b"/><rect x="23" y="19" width="3" height="1.02" fill="#111013"/><rect x="26" y="19" width="1" height="1.02" fill="#695e50"/><rect x="27" y="19" width="1" height="1.02" fill="#8d745a"/><rect x="28" y="19" width="1" height="1.02" fill="#785c41"/><rect x="29" y="19" width="2" height="1.02" fill="#111013"/><rect x="31" y="19" width="8" height="1.02" fill="#cba57b"/><rect x="39" y="19" width="1" height="1.02" fill="#111013"/><rect x="0" y="20" width="2" height="1.02" fill="#111013"/><rect x="2" y="20" width="20" height="1.02" fill="#cba57b"/><rect x="22" y="20" width="1" height="1.02" fill="#111013"/><rect x="23" y="20" width="1" height="1.02" fill="#2e2622"/><rect x="24" y="20" width="2" height="1.02" fill="#edf1f3"/><rect x="26" y="20" width="4" height="1.02" fill="#111013"/><rect x="30" y="20" width="8" height="1.02" fill="#cba57b"/><rect x="38" y="20" width="1" height="1.02" fill="#8d745a"/><rect x="39" y="20" width="1" height="1.02" fill="#111013"/><rect x="0" y="21" width="2" height="1.02" fill="#111013"/><rect x="2" y="21" width="7" height="1.02" fill="#cba57b"/><rect x="9" y="21" width="3" height="1.02" fill="#2e2622"/><rect x="12" y="21" width="9" height="1.02" fill="#cba57b"/><rect x="21" y="21" width="2" height="1.02" fill="#111013"/><rect x="23" y="21" width="2" height="1.02" fill="#edf1f3"/><rect x="25" y="21" width="2" height="1.02" fill="#695e50"/><rect x="27" y="21" width="2" height="1.02" fill="#111013"/><rect x="29" y="21" width="2" height="1.02" fill="#cba57b"/><rect x="31" y="21" width="7" height="1.02" fill="#8d745a"/><rect x="38" y="21" width="1" height="1.02" fill="#111013"/><rect x="0" y="22" width="2" height="1.02" fill="#111013"/><rect x="2" y="22" width="6" height="1.02" fill="#cba57b"/><rect x="8" y="22" width="1" height="1.02" fill="#2e2622"/><rect x="9" y="22" width="3" height="1.02" fill="#6684a6"/><rect x="12" y="22" width="9" height="1.02" fill="#cba57b"/><rect x="21" y="22" width="1" height="1.02" fill="#2e2622"/><rect x="22" y="22" width="2" height="1.02" fill="#edf1f3"/><rect x="24" y="22" width="3" height="1.02" fill="#695e50"/><rect x="27" y="22" width="1" height="1.02" fill="#111013"/><rect x="28" y="22" width="2" height="1.02" fill="#cba57b"/><rect x="30" y="22" width="1" height="1.02" fill="#8d745a"/><rect x="31" y="22" width="1" height="1.02" fill="#111013"/><rect x="32" y="22" width="1" height="1.02" fill="#8d745a"/><rect x="33" y="22" width="2" height="1.02" fill="#111013"/><rect x="35" y="22" width="1" height="1.02" fill="#8d745a"/><rect x="36" y="22" width="1" height="1.02" fill="#2e2622"/><rect x="37" y="22" width="1" height="1.02" fill="#111013"/><rect x="0" y="23" width="2" height="1.02" fill="#111013"/><rect x="2" y="23" width="1" height="1.02" fill="#8d745a"/><rect x="3" y="23" width="4" height="1.02" fill="#cba57b"/><rect x="7" y="23" width="1" height="1.02" fill="#695e50"/><rect x="8" y="23" width="5" height="1.02" fill="#6684a6"/><rect x="13" y="23" width="1" height="1.02" fill="#a98869"/><rect x="14" y="23" width="6" height="1.02" fill="#cba57b"/><rect x="20" y="23" width="1" height="1.02" fill="#2e2622"/><rect x="21" y="23" width="1" height="1.02" fill="#111013"/><rect x="22" y="23" width="1" height="1.02" fill="#edf1f3"/><rect x="23" y="23" width="1" height="1.02" fill="#a9b3ba"/><rect x="24" y="23" width="2" height="1.02" fill="#695e50"/><rect x="26" y="23" width="1" height="1.02" fill="#111013"/><rect x="27" y="23" width="1" height="1.02" fill="#a98869"/><rect x="28" y="23" width="1" height="1.02" fill="#cba57b"/><rect x="29" y="23" width="1" height="1.02" fill="#a98869"/><rect x="30" y="23" width="1" height="1.02" fill="#8d745a"/><rect x="31" y="23" width="7" height="1.02" fill="#111013"/><rect x="2" y="24" width="1" height="1.02" fill="#111013"/><rect x="3" y="24" width="4" height="1.02" fill="#cba57b"/><rect x="7" y="24" width="1" height="1.02" fill="#111013"/><rect x="8" y="24" width="5" height="1.02" fill="#6684a6"/><rect x="13" y="24" width="1" height="1.02" fill="#2e2622"/><rect x="14" y="24" width="4" height="1.02" fill="#cba57b"/><rect x="18" y="24" width="5" height="1.02" fill="#111013"/><rect x="23" y="24" width="2" height="1.02" fill="#695e50"/><rect x="25" y="24" width="1" height="1.02" fill="#111013"/><rect x="26" y="24" width="3" height="1.02" fill="#cba57b"/><rect x="29" y="24" width="1" height="1.02" fill="#8d745a"/><rect x="30" y="24" width="1" height="1.02" fill="#111013"/><rect x="2" y="25" width="1" height="1.02" fill="#111013"/><rect x="3" y="25" width="4" height="1.02" fill="#cba57b"/><rect x="7" y="25" width="1" height="1.02" fill="#111013"/><rect x="8" y="25" width="5" height="1.02" fill="#6684a6"/><rect x="13" y="25" width="1" height="1.02" fill="#2e2622"/><rect x="14" y="25" width="3" height="1.02" fill="#cba57b"/><rect x="17" y="25" width="1" height="1.02" fill="#111013"/><rect x="18" y="25" width="3" height="1.02" fill="#a98869"/><rect x="21" y="25" width="1" height="1.02" fill="#8d745a"/><rect x="22" y="25" width="3" height="1.02" fill="#111013"/><rect x="25" y="25" width="1" height="1.02" fill="#a98869"/><rect x="26" y="25" width="3" height="1.02" fill="#cba57b"/><rect x="29" y="25" width="1" height="1.02" fill="#8d745a"/><rect x="30" y="25" width="1" height="1.02" fill="#111013"/><rect x="2" y="26" width="1" height="1.02" fill="#111013"/><rect x="3" y="26" width="1" height="1.02" fill="#8d745a"/><rect x="4" y="26" width="3" height="1.02" fill="#cba57b"/><rect x="7" y="26" width="1" height="1.02" fill="#111013"/><rect x="8" y="26" width="4" height="1.02" fill="#6684a6"/><rect x="12" y="26" width="1" height="1.02" fill="#695e50"/><rect x="13" y="26" width="1" height="1.02" fill="#111013"/><rect x="14" y="26" width="3" height="1.02" fill="#cba57b"/><rect x="17" y="26" width="1" height="1.02" fill="#111013"/><rect x="18" y="26" width="3" height="1.02" fill="#a98869"/><rect x="21" y="26" width="2" height="1.02" fill="#695e50"/><rect x="23" y="26" width="1" height="1.02" fill="#111013"/><rect x="24" y="26" width="1" height="1.02" fill="#8d745a"/><rect x="25" y="26" width="5" height="1.02" fill="#cba57b"/><rect x="30" y="26" width="1" height="1.02" fill="#111013"/><rect x="2" y="27" width="2" height="1.02" fill="#695e50"/><rect x="4" y="27" width="1" height="1.02" fill="#a98869"/><rect x="5" y="27" width="3" height="1.02" fill="#cba57b"/><rect x="8" y="27" width="1" height="1.02" fill="#4a4138"/><rect x="9" y="27" width="2" height="1.02" fill="#6684a6"/><rect x="11" y="27" width="1" height="1.02" fill="#2e2622"/><rect x="12" y="27" width="1" height="1.02" fill="#4a4138"/><rect x="13" y="27" width="3" height="1.02" fill="#cba57b"/><rect x="16" y="27" width="1" height="1.02" fill="#111013"/><rect x="17" y="27" width="3" height="1.02" fill="#a98869"/><rect x="20" y="27" width="1" height="1.02" fill="#785c41"/><rect x="21" y="27" width="2" height="1.02" fill="#695e50"/><rect x="23" y="27" width="1" height="1.02" fill="#111013"/><rect x="24" y="27" width="7" height="1.02" fill="#cba57b"/><rect x="31" y="27" width="1" height="1.02" fill="#111013"/><rect x="3" y="28" width="1" height="1.02" fill="#111013"/><rect x="4" y="28" width="1" height="1.02" fill="#695e50"/><rect x="5" y="28" width="1" height="1.02" fill="#a98869"/><rect x="6" y="28" width="3" height="1.02" fill="#cba57b"/><rect x="9" y="28" width="3" height="1.02" fill="#2e2622"/><rect x="12" y="28" width="3" height="1.02" fill="#cba57b"/><rect x="15" y="28" width="2" height="1.02" fill="#111013"/><rect x="17" y="28" width="1" height="1.02" fill="#a98869"/><rect x="18" y="28" width="1" height="1.02" fill="#8d745a"/><rect x="19" y="28" width="3" height="1.02" fill="#695e50"/><rect x="22" y="28" width="1" height="1.02" fill="#4a4138"/><rect x="23" y="28" width="1" height="1.02" fill="#111013"/><rect x="24" y="28" width="7" height="1.02" fill="#cba57b"/><rect x="31" y="28" width="1" height="1.02" fill="#111013"/><rect x="4" y="29" width="2" height="1.02" fill="#111013"/><rect x="6" y="29" width="8" height="1.02" fill="#cba57b"/><rect x="14" y="29" width="2" height="1.02" fill="#111013"/><rect x="16" y="29" width="5" height="1.02" fill="#695e50"/><rect x="21" y="29" width="2" height="1.02" fill="#111013"/><rect x="23" y="29" width="8" height="1.02" fill="#cba57b"/><rect x="31" y="29" width="1" height="1.02" fill="#111013"/><rect x="6" y="30" width="1" height="1.02" fill="#4a4138"/><rect x="7" y="30" width="1" height="1.02" fill="#a98869"/><rect x="8" y="30" width="7" height="1.02" fill="#cba57b"/><rect x="15" y="30" width="6" height="1.02" fill="#111013"/><rect x="21" y="30" width="1" height="1.02" fill="#a98869"/><rect x="22" y="30" width="8" height="1.02" fill="#cba57b"/><rect x="30" y="30" width="1" height="1.02" fill="#8d745a"/><rect x="31" y="30" width="1" height="1.02" fill="#111013"/><rect x="6" y="31" width="1" height="1.02" fill="#111013"/><rect x="7" y="31" width="1" height="1.02" fill="#695e50"/><rect x="8" y="31" width="1" height="1.02" fill="#a98869"/><rect x="9" y="31" width="21" height="1.02" fill="#cba57b"/><rect x="30" y="31" width="1" height="1.02" fill="#8d745a"/><rect x="31" y="31" width="1" height="1.02" fill="#111013"/><rect x="7" y="32" width="2" height="1.02" fill="#111013"/><rect x="9" y="32" width="3" height="1.02" fill="#8d745a"/><rect x="12" y="32" width="14" height="1.02" fill="#cba57b"/><rect x="26" y="32" width="2" height="1.02" fill="#a98869"/><rect x="28" y="32" width="1" height="1.02" fill="#785c41"/><rect x="29" y="32" width="1" height="1.02" fill="#695e50"/><rect x="30" y="32" width="1" height="1.02" fill="#111013"/><rect x="9" y="33" width="3" height="1.02" fill="#111013"/><rect x="12" y="33" width="12" height="1.02" fill="#a98869"/><rect x="24" y="33" width="2" height="1.02" fill="#8d745a"/><rect x="26" y="33" width="4" height="1.02" fill="#111013"/><rect x="12" y="34" width="15" height="1.02" fill="#111013"/><rect x="12" y="35" width="14" height="1.02" fill="#111013"/></g></svg>